<svg width="66" height="54" viewBox="0 0 66 54" fill="none" xmlns="http://www.w3.org/2000/svg">
<path d="M47.3536 21.6464C47.5488 21.8417 47.5488 22.1583 47.3536 22.3536L44.1716 25.5355C43.9763 25.7308 43.6597 25.7308 43.4645 25.5355C43.2692 25.3403 43.2692 25.0237 43.4645 24.8284L46.2929 22L43.4645 19.1716C43.2692 18.9763 43.2692 18.6597 43.4645 18.4645C43.6597 18.2692 43.9763 18.2692 44.1716 18.4645L47.3536 21.6464ZM0 21.5L47 21.5V22.5L0 22.5L0 21.5Z" fill="#8A5137"/>
<circle r="21" transform="matrix(-1 0 0 1 44.5 21.5)" fill="var(--color-circle)" stroke="#8A5137"/>
<path d="M47.3536 21.6464C47.5488 21.8417 47.5488 22.1583 47.3536 22.3536L44.1716 25.5355C43.9763 25.7308 43.6597 25.7308 43.4645 25.5355C43.2692 25.3403 43.2692 25.0237 43.4645 24.8284L46.2929 22L43.4645 19.1716C43.2692 18.9763 43.2692 18.6597 43.4645 18.4645C43.6597 18.2692 43.9763 18.2692 44.1716 18.4645L47.3536 21.6464ZM23 21.5L47 21.5V22.5L23 22.5V21.5Z" fill="var(--color-path)"/>
</svg>
